# xmcd
#
# Track frame offsets:
#	150
#	17375
#	39078
#	51082
#	68542
#	92036
#	106863
#	121462
#	137731
#	153637
#	171032
#	190825
#	206212
#	226742
#	240971
#	260817
#	278106
#	295613
#	310103
#	320876
# Disc length: 4470 seconds
# Revision: 1
# Processed by: cddbd v1.5.1PL0 Copyright (c) Steve Scherf et al.
#
# Submitted via: libkcddb 0.10
#
DISCID=0f117414
DTITLE=The Mavericks - The Definitive Collection
DYEAR=2004
DGENRE=Country
TTITLE0=This Broken Heart
TTITLE1=From Hell to Paradise
TTITLE2=Hey Good Lookin'
TTITLE3=What a Crying Shame
TTITLE4=I Should Have Been True
TTITLE5=There Goes My Heart
TTITLE6=What A Thrill
TTITLE7=All That Heaven Would Allow
TTITLE8=Missing You
TTITLE9=Here Comes The Rain
TTITLE10=All You Ever Do Is Bring Me Down (featuring Flaco Jemenez)
TTITLE11=The Writing On The Wall
TTITLE12=Blue Moon
TTITLE13=I Don't Care If You Don't Love Me Anymore)
TTITLE14=Dance The Night Away
TTITLE15=Dream River
TTITLE16=To Be With You
TTITLE17=Rancho Grande (Live)
TTITLE18=Think Of Me (When You're Lonely)
TTITLE19=Here Comes My Baby
EXTD=
EXTT0=
EXTT1=
EXTT2=
EXTT3=
EXTT4=
EXTT5=
EXTT6=
EXTT7=
EXTT8=
EXTT9=
EXTT10=
EXTT11=
EXTT12=
EXTT13=
EXTT14=
EXTT15=
EXTT16=
EXTT17=
EXTT18=
EXTT19=
PLAYORDER=
